{"title":"Vengeance Is Mine 2012 DvDRip x264 AC3-MATA","uid":7815461,"size":940472068,"categoryP":"video","categoryS":"movies","magnet":"?xt=urn:btih:817ee79fd1875cc59657db7f47f1d7cb381f1570&amp;dn=Vengeance+Is+Mine+2012+DvDRip+x264+AC3-MATA&amp;tr=udp%3A%2F%2Ftracker.openbittorrent.com%3A80&amp;tr=udp%3A%2F%2Fopen.demonii.com%3A1337&amp;tr=udp%3A%2F%2Ftracker.coppersurfer.tk%3A6969&amp;tr=udp%3A%2F%2Fexodus.desync.com%3A6969","seeders":1,"leechers":0,"uploader":"MANTESH","files":2,"time":1352646165,"description":" &lt;a href=&quot;http://img208.imageshack.us/img208/830/levsep122745b15d.jpg&quot; rel=&quot;nofollow&quot; target=&quot;_NEW&quot;&gt;http://img208.imageshack.us/img208/830/levsep122745b15d.jpg&lt;/a&gt;\n\n\n\n\nRelease Name: Vengeance.Is.Mine.2012.DvDRip.x264.AC3-MATA\nSize: 896MB\nVideo: x264, 720Ã—400, 1 000 Kbps\nAudio: English, AC3, 384bps\nRuntime: 1h 30mn\n\nIMDB\n &lt;a href=&quot; http://www.imdb.com/title/tt2197561/&quot; rel=&quot;nofollow&quot; target=&quot;_NEW&quot;&gt; http://www.imdb.com/title/tt2197561/&lt;/a&gt;\n\nGenre:  Action | Crime | Drama\nIMDB Rating: 4.2/10\nDirected by: Keoni Waxman\nStarring: Crystal Balint, Fraser Corbett and Ben Cotton\n\n\nPlot: After leaving the force, Elijah Kane (Steven Seagal) falls back into his special forces past, re-emerging from the ashes of his destroyed Special Investigations Unit to once again work for the government. Aware of his skill as a long-range sniper, Kane is recruited by Marcus Mitchell (Adrian Holmes) of the CIA to come back as an operative. In return, Marcus promises that the CIA will provide information to Kane about who put out the hit on his SIU team. Kane is given a long-term off-the-grid mission to take out a high level target that the CIA cannot go after in the traditional way. Marcus feeds Kane intel that leads him into the targets circle with a goal of getting Kane close enough to take a kill shot from a distance. Only then will the identity of the target be revealed to the team. For this operation, Kane recruits three agents to form a new team of operatives. All three are trained by Kane and ultimately driven (like Kane) by not just business, but also for personal reasons.\n\n Source: DVDR\n\n\n Video\n ID : 1\n Format : AVC\n Format/Info : Advanced Video Codec\n Format profile : &lt;a class=&quot;__cf_email__&quot; href=&quot;/cdn-cgi/l/email-protection&quot; data-cfemail=&quot;de93bfb7b09e92edf0ee&quot;&gt;[email&amp;#160;protected]&lt;/a&gt;&lt;script cf-hash='f9e31' type=&quot;text/javascript&quot;&gt;\n/* &lt;![CDATA[ */!function(){try{var t=&quot;currentScript&quot;in document?document.currentScript:function(){for(var t=document.getElementsByTagName(&quot;script&quot;),e=t.length;e--;)if(t[e].getAttribute(&quot;cf-hash&quot;))return t[e]}();if(t&amp;&amp;t.previousSibling){var e,r,n,i,c=t.previousSibling,a=c.getAttribute(&quot;data-cfemail&quot;);if(a){for(e=&quot;&quot;,r=parseInt(a.substr(0,2),16),n=2;a.length-n;n+=2)i=parseInt(a.substr(n,2),16)^r,e+=String.fromCharCode(i);e=document.createTextNode(e),c.parentNode.replaceChild(e,c)}}}catch(u){}}();/* ]]&gt; */&lt;/script&gt;\n Format settings, CABAC : Yes\n Format settings, ReFrames : 4 frames\n Codec ID : V_MPEG4/ISO/AVC\n Duration : 1h 30mn\n Bit rate : 1 000 Kbps\n Width : 720 pixels\n Height : 400 pixels\n Display aspect ratio : 16:9\n Frame rate mode : Variable\n Frame rate : 23.976 fps\n Color space : YUV\n Chroma subsampling : 4:2:0\n Bit depth : 8 bits\n Scan type : Progressive\n Bits/(Pixel*Frame) : 0.145\n Stream size : 631 MiB (70%)\n Writing library : x264 core 125\n\n Audio\n ID : 2\n Format : AC-3\n Format/Info : Audio Coding 3\n Mode extension : CM (complete main)\n Codec ID : A_AC3\n Duration : 1h 30mn\n Bit rate mode : Constant\n Bit rate : 384 Kbps\n Channel(s) : 6 channels\n Channel positions : Front: L C R, Side: L R, LFE\n Sampling rate : 48.0 KHz\n Bit depth : 16 bits\n Compression mode : Lossy\n Stream size : 248 MiB (28%)\n Language : English\n\n &lt;a href=&quot;\nhttp://img685.imageshack.us/img685/2134/47268111.png&quot; rel=&quot;nofollow&quot; target=&quot;_NEW&quot;&gt;\nhttp://img685.imageshack.us/img685/2134/47268111.png&lt;/a&gt; &lt;a href=&quot;\nhttp://img38.imageshack.us/img38/5233/88016756.png&quot; rel=&quot;nofollow&quot; target=&quot;_NEW&quot;&gt;\nhttp://img38.imageshack.us/img38/5233/88016756.png&lt;/a&gt; &lt;a href=&quot;\nhttp://img641.imageshack.us/img641/5995/712231.jpg&quot; rel=&quot;nofollow&quot; target=&quot;_NEW&quot;&gt;\nhttp://img641.imageshack.us/img641/5995/712231.jpg&lt;/a&gt;\n\n\n\n","torrent":{"xt":"urn:btih:817ee79fd1875cc59657db7f47f1d7cb381f1570","amp;dn":"Vengeance+Is+Mine+2012+DvDRip+x264+AC3-MATA","amp;tr":["udp%3A%2F%2Ftracker.openbittorrent.com%3A80","udp%3A%2F%2Fopen.demonii.com%3A1337","udp%3A%2F%2Ftracker.coppersurfer.tk%3A6969","udp%3A%2F%2Fexodus.desync.com%3A6969"],"infoHash":"817ee79fd1875cc59657db7f47f1d7cb381f1570","infoHashBuffer":{"type":"Buffer","data":[129,126,231,159,209,135,92,197,150,87,219,127,71,241,215,203,56,31,21,112]},"announce":[],"urlList":[]}}